<?xml version="1.0" encoding="UTF-8" standalone="no"?>
<!DOCTYPE svg PUBLIC "-//W3C//DTD SVG 1.1//EN" "http://www.w3.org/Graphics/SVG/1.1/DTD/svg11.dtd">
<svg width="100%" height="100%" viewBox="0 0 640 160" version="1.1" xmlns="http://www.w3.org/2000/svg" xmlns:xlink="http://www.w3.org/1999/xlink" xml:space="preserve" xmlns:serif="http://www.serif.com/" style="fill-rule:evenodd;clip-rule:evenodd;stroke-linejoin:round;stroke-miterlimit:2;">
    <g transform="matrix(1,0,0,1,-5.68434e-14,-240)">
        <g transform="matrix(1,0,0,1,-196.723,101.068)">
            <g id="Game">
                <g>
                    <g transform="matrix(120,0,0,120,321.543,260.932)">
                        <path d="M0.407,0.011C0.355,0.011 0.307,0.002 0.262,-0.017C0.217,-0.035 0.178,-0.061 0.144,-0.094C0.11,-0.127 0.084,-0.165 0.065,-0.209C0.046,-0.252 0.036,-0.299 0.036,-0.35C0.036,-0.401 0.046,-0.448 0.065,-0.492C0.084,-0.535 0.11,-0.574 0.143,-0.607C0.176,-0.64 0.216,-0.665 0.261,-0.684C0.306,-0.702 0.354,-0.711 0.405,-0.711C0.463,-0.711 0.518,-0.7 0.569,-0.677C0.62,-0.654 0.663,-0.621 0.696,-0.58L0.595,-0.487C0.571,-0.517 0.543,-0.54 0.51,-0.555C0.477,-0.57 0.442,-0.578 0.405,-0.578C0.374,-0.578 0.345,-0.572 0.318,-0.561C0.291,-0.549 0.268,-0.533 0.248,-0.513C0.228,-0.492 0.213,-0.468 0.202,-0.441C0.191,-0.413 0.185,-0.383 0.185,-0.35C0.185,-0.317 0.191,-0.287 0.202,-0.259C0.213,-0.231 0.229,-0.207 0.25,-0.187C0.27,-0.166 0.294,-0.15 0.321,-0.139C0.347,-0.127 0.377,-0.121 0.409,-0.121C0.442,-0.121 0.472,-0.127 0.499,-0.14C0.526,-0.152 0.548,-0.169 0.567,-0.192C0.585,-0.214 0.597,-0.239 0.603,-0.267L0.396,-0.267L0.396,-0.393L0.758,-0.393L0.758,-0.349C0.758,-0.297 0.749,-0.249 0.732,-0.205C0.714,-0.162 0.689,-0.124 0.658,-0.092C0.627,-0.059 0.59,-0.034 0.547,-0.016C0.504,0.002 0.458,0.011 0.407,0.011Z" style="fill-rule:nonzero;"/>
                    </g>
                    <g transform="matrix(120,0,0,120,412.023,260.932)">
                        <path d="M0.22,0.009C0.183,0.009 0.15,0.002 0.121,-0.012C0.092,-0.025 0.07,-0.044 0.054,-0.068C0.038,-0.092 0.03,-0.12 0.03,-0.151C0.03,-0.201 0.049,-0.24 0.086,-0.268C0.124,-0.295 0.176,-0.309 0.242,-0.309C0.287,-0.309 0.33,-0.302 0.37,-0.288L0.37,-0.326C0.37,-0.356 0.361,-0.379 0.342,-0.394C0.323,-0.409 0.296,-0.417 0.26,-0.417C0.238,-0.417 0.214,-0.413 0.189,-0.406C0.164,-0.4 0.134,-0.389 0.101,-0.374L0.051,-0.475C0.092,-0.494 0.132,-0.508 0.17,-0.517C0.207,-0.526 0.245,-0.531 0.283,-0.531C0.353,-0.531 0.407,-0.514 0.447,-0.481C0.486,-0.447 0.505,-0.399 0.505,-0.338L0.505,-0L0.37,-0L0.37,-0.037C0.349,-0.021 0.326,-0.009 0.301,-0.002C0.276,0.005 0.249,0.009 0.22,0.009ZM0.16,-0.154C0.16,-0.134 0.169,-0.118 0.186,-0.107C0.203,-0.095 0.226,-0.089 0.255,-0.089C0.278,-0.089 0.299,-0.092 0.318,-0.098C0.337,-0.103 0.355,-0.112 0.37,-0.123L0.37,-0.199C0.353,-0.206 0.336,-0.211 0.318,-0.214C0.3,-0.217 0.281,-0.219 0.26,-0.219C0.229,-0.219 0.204,-0.213 0.187,-0.202C0.169,-0.19 0.16,-0.174 0.16,-0.154Z" style="fill-rule:nonzero;"/>
                    </g>
                    <g transform="matrix(120,0,0,120,476.223,260.932)">
                        <path d="M0.054,-0L0.054,-0.521L0.191,-0.521L0.191,-0.481C0.228,-0.514 0.274,-0.531 0.327,-0.531C0.361,-0.531 0.391,-0.524 0.418,-0.51C0.445,-0.497 0.467,-0.478 0.484,-0.453C0.505,-0.478 0.531,-0.498 0.56,-0.511C0.589,-0.524 0.621,-0.531 0.656,-0.531C0.695,-0.531 0.73,-0.522 0.759,-0.504C0.789,-0.487 0.813,-0.463 0.83,-0.432C0.847,-0.401 0.855,-0.364 0.855,-0.323L0.855,-0L0.719,-0L0.719,-0.303C0.719,-0.337 0.71,-0.364 0.692,-0.384C0.674,-0.403 0.65,-0.413 0.62,-0.413C0.599,-0.413 0.581,-0.409 0.564,-0.4C0.547,-0.391 0.532,-0.378 0.52,-0.361C0.521,-0.355 0.521,-0.349 0.522,-0.343C0.523,-0.337 0.523,-0.33 0.523,-0.323L0.523,-0L0.386,-0L0.386,-0.303C0.386,-0.337 0.377,-0.364 0.36,-0.384C0.342,-0.403 0.318,-0.413 0.288,-0.413C0.267,-0.413 0.249,-0.409 0.233,-0.401C0.216,-0.393 0.202,-0.381 0.191,-0.365L0.191,-0L0.054,-0Z" style="fill-rule:nonzero;"/>
                    </g>
                    <g transform="matrix(120,0,0,120,582.423,260.932)">
                        <path d="M0.309,0.01C0.257,0.01 0.21,-0.002 0.168,-0.026C0.125,-0.05 0.092,-0.082 0.067,-0.123C0.042,-0.164 0.03,-0.209 0.03,-0.26C0.03,-0.311 0.042,-0.356 0.066,-0.397C0.089,-0.438 0.121,-0.47 0.162,-0.494C0.203,-0.518 0.248,-0.53 0.298,-0.53C0.348,-0.53 0.392,-0.518 0.431,-0.493C0.47,-0.468 0.5,-0.435 0.523,-0.393C0.545,-0.351 0.556,-0.303 0.556,-0.25L0.556,-0.214L0.17,-0.214C0.176,-0.193 0.186,-0.175 0.2,-0.158C0.213,-0.141 0.23,-0.128 0.251,-0.119C0.271,-0.11 0.293,-0.105 0.316,-0.105C0.339,-0.105 0.361,-0.109 0.381,-0.116C0.4,-0.123 0.417,-0.134 0.431,-0.147L0.521,-0.065C0.489,-0.039 0.456,-0.02 0.423,-0.008C0.389,0.004 0.351,0.01 0.309,0.01ZM0.168,-0.312L0.421,-0.312C0.416,-0.333 0.408,-0.351 0.396,-0.367C0.383,-0.382 0.369,-0.395 0.352,-0.404C0.335,-0.412 0.316,-0.417 0.295,-0.417C0.274,-0.417 0.254,-0.413 0.237,-0.404C0.22,-0.395 0.205,-0.383 0.194,-0.368C0.182,-0.352 0.173,-0.333 0.168,-0.312Z" style="fill-rule:nonzero;"/>
                    </g>
                    <g transform="matrix(120,0,0,120,650.343,260.932)">
                        <path d="M0.249,0.01C0.201,0.01 0.157,0.004 0.116,-0.009C0.075,-0.021 0.04,-0.039 0.01,-0.062L0.078,-0.153C0.108,-0.133 0.137,-0.118 0.165,-0.108C0.192,-0.098 0.22,-0.093 0.247,-0.093C0.278,-0.093 0.302,-0.098 0.321,-0.109C0.339,-0.119 0.348,-0.132 0.348,-0.149C0.348,-0.162 0.343,-0.173 0.333,-0.181C0.322,-0.189 0.306,-0.195 0.283,-0.198L0.183,-0.213C0.131,-0.221 0.092,-0.238 0.065,-0.264C0.038,-0.289 0.025,-0.323 0.025,-0.365C0.025,-0.399 0.034,-0.428 0.051,-0.453C0.069,-0.477 0.094,-0.496 0.127,-0.509C0.159,-0.523 0.197,-0.53 0.242,-0.53C0.28,-0.53 0.317,-0.525 0.354,-0.514C0.39,-0.503 0.424,-0.487 0.456,-0.465L0.39,-0.376C0.361,-0.394 0.334,-0.407 0.308,-0.415C0.282,-0.423 0.256,-0.427 0.229,-0.427C0.204,-0.427 0.185,-0.422 0.17,-0.413C0.155,-0.404 0.147,-0.391 0.147,-0.376C0.147,-0.362 0.152,-0.351 0.163,-0.343C0.174,-0.335 0.192,-0.329 0.218,-0.326L0.317,-0.311C0.369,-0.304 0.409,-0.287 0.436,-0.262C0.463,-0.236 0.477,-0.203 0.477,-0.162C0.477,-0.129 0.467,-0.099 0.447,-0.074C0.427,-0.048 0.4,-0.028 0.366,-0.013C0.332,0.002 0.293,0.01 0.249,0.01Z" style="fill-rule:nonzero;"/>
                    </g>
                </g>
            </g>
        </g>
    </g>
</svg>
