<?xml version="1.0" encoding="UTF-8" standalone="no"?>
<!DOCTYPE svg PUBLIC "-//W3C//DTD SVG 1.1//EN" "http://www.w3.org/Graphics/SVG/1.1/DTD/svg11.dtd">
<svg width="100%" height="100%" viewBox="0 0 532 87" version="1.1" xmlns="http://www.w3.org/2000/svg" xmlns:xlink="http://www.w3.org/1999/xlink" xml:space="preserve" xmlns:serif="http://www.serif.com/" style="fill-rule:evenodd;clip-rule:evenodd;stroke-linejoin:round;stroke-miterlimit:2;">
    <g transform="matrix(1,0,0,1,-34.32,-256.68)">
        <g transform="matrix(1,0,0,1,-60.396,143.853)">
            <g transform="matrix(120,0,0,120,90.396,198.147)">
                <path d="M0.407,0.011C0.355,0.011 0.307,0.002 0.262,-0.017C0.217,-0.035 0.178,-0.061 0.144,-0.094C0.11,-0.127 0.084,-0.165 0.065,-0.209C0.046,-0.252 0.036,-0.299 0.036,-0.35C0.036,-0.401 0.046,-0.448 0.065,-0.492C0.084,-0.535 0.11,-0.574 0.143,-0.607C0.176,-0.64 0.216,-0.665 0.261,-0.684C0.306,-0.702 0.354,-0.711 0.405,-0.711C0.463,-0.711 0.518,-0.7 0.569,-0.677C0.62,-0.654 0.663,-0.621 0.696,-0.58L0.595,-0.487C0.571,-0.517 0.543,-0.54 0.51,-0.555C0.477,-0.57 0.442,-0.578 0.405,-0.578C0.374,-0.578 0.345,-0.572 0.318,-0.561C0.291,-0.549 0.268,-0.533 0.248,-0.513C0.228,-0.492 0.213,-0.468 0.202,-0.441C0.191,-0.413 0.185,-0.383 0.185,-0.35C0.185,-0.317 0.191,-0.287 0.202,-0.259C0.213,-0.231 0.229,-0.207 0.25,-0.187C0.27,-0.166 0.294,-0.15 0.321,-0.139C0.347,-0.127 0.377,-0.121 0.409,-0.121C0.442,-0.121 0.472,-0.127 0.499,-0.14C0.526,-0.152 0.548,-0.169 0.567,-0.192C0.585,-0.214 0.597,-0.239 0.603,-0.267L0.396,-0.267L0.396,-0.393L0.758,-0.393L0.758,-0.349C0.758,-0.297 0.749,-0.249 0.732,-0.205C0.714,-0.162 0.689,-0.124 0.658,-0.092C0.627,-0.059 0.59,-0.034 0.547,-0.016C0.504,0.002 0.458,0.011 0.407,0.011Z" style="fill-rule:nonzero;"/>
            </g>
            <g transform="matrix(120,0,0,120,178.476,198.147)">
                <path d="M0.063,-0L0.063,-0.7L0.208,-0.7L0.208,-0.128L0.591,-0.128L0.591,-0L0.063,-0Z" style="fill-rule:nonzero;"/>
            </g>
            <g transform="matrix(120,0,0,120,239.436,198.147)">
                <path d="M0.406,0.011C0.354,0.011 0.306,0.002 0.261,-0.017C0.216,-0.035 0.177,-0.061 0.143,-0.094C0.11,-0.127 0.084,-0.165 0.065,-0.209C0.046,-0.252 0.036,-0.299 0.036,-0.35C0.036,-0.401 0.046,-0.448 0.065,-0.492C0.084,-0.535 0.11,-0.574 0.143,-0.607C0.177,-0.64 0.216,-0.665 0.261,-0.684C0.306,-0.702 0.354,-0.711 0.406,-0.711C0.458,-0.711 0.506,-0.702 0.552,-0.684C0.597,-0.665 0.636,-0.64 0.67,-0.607C0.703,-0.574 0.729,-0.535 0.748,-0.492C0.767,-0.448 0.776,-0.401 0.776,-0.35C0.776,-0.299 0.767,-0.252 0.748,-0.209C0.729,-0.165 0.703,-0.127 0.67,-0.094C0.636,-0.061 0.597,-0.035 0.552,-0.017C0.506,0.002 0.458,0.011 0.406,0.011ZM0.406,-0.122C0.438,-0.122 0.467,-0.128 0.494,-0.14C0.521,-0.151 0.544,-0.167 0.564,-0.188C0.584,-0.208 0.6,-0.232 0.611,-0.26C0.622,-0.288 0.628,-0.318 0.628,-0.35C0.628,-0.383 0.622,-0.413 0.611,-0.441C0.6,-0.468 0.584,-0.492 0.564,-0.513C0.544,-0.533 0.521,-0.549 0.494,-0.561C0.467,-0.572 0.438,-0.578 0.406,-0.578C0.375,-0.578 0.346,-0.572 0.319,-0.561C0.292,-0.549 0.269,-0.533 0.249,-0.513C0.229,-0.492 0.213,-0.468 0.202,-0.441C0.191,-0.413 0.185,-0.383 0.185,-0.351C0.185,-0.318 0.191,-0.288 0.202,-0.26C0.213,-0.232 0.229,-0.208 0.249,-0.188C0.269,-0.167 0.292,-0.151 0.319,-0.14C0.346,-0.128 0.375,-0.122 0.406,-0.122Z" style="fill-rule:nonzero;"/>
            </g>
            <g transform="matrix(120,0,0,120,322.596,198.147)">
                <path d="M-0.003,-0L0.264,-0.362L0.011,-0.7L0.184,-0.7L0.35,-0.47L0.515,-0.7L0.682,-0.7L0.433,-0.362L0.703,-0L0.53,-0L0.347,-0.254L0.164,-0L-0.003,-0Z" style="fill-rule:nonzero;"/>
            </g>
            <g transform="matrix(120,0,0,120,401.796,198.147)">
                <rect x="0.063" y="-0.7" width="0.145" height="0.7" style="fill-rule:nonzero;"/>
            </g>
            <g transform="matrix(120,0,0,120,427.236,198.147)">
                <path d="M0.063,-0L0.063,-0.7L0.201,-0.7L0.549,-0.248L0.549,-0.7L0.685,-0.7L0.685,-0L0.557,-0L0.2,-0.468L0.2,-0L0.063,-0Z" style="fill-rule:nonzero;"/>
            </g>
            <g transform="matrix(120,0,0,120,509.916,198.147)">
                <rect x="0.063" y="-0.7" width="0.145" height="0.7" style="fill-rule:nonzero;"/>
            </g>
            <g transform="matrix(120,0,0,120,537.756,198.147)">
                <path d="M-0.004,-0L0.284,-0.7L0.451,-0.7L0.736,-0L0.579,-0L0.508,-0.184L0.219,-0.184L0.147,-0L-0.004,-0ZM0.264,-0.3L0.464,-0.3L0.364,-0.558L0.264,-0.3Z" style="fill-rule:nonzero;"/>
            </g>
        </g>
    </g>
</svg>
