<?xml version="1.0" encoding="UTF-8" standalone="no"?>
<!DOCTYPE svg PUBLIC "-//W3C//DTD SVG 1.1//EN" "http://www.w3.org/Graphics/SVG/1.1/DTD/svg11.dtd">
<svg width="100%" height="100%" viewBox="0 0 467 74" version="1.1" xmlns="http://www.w3.org/2000/svg" xmlns:xlink="http://www.w3.org/1999/xlink" xml:space="preserve" xmlns:serif="http://www.serif.com/" style="fill-rule:evenodd;clip-rule:evenodd;stroke-linejoin:round;stroke-miterlimit:2;">
    <g transform="matrix(1,0,0,1,-66.7406,-263.438)">
        <g transform="matrix(1,0,0,1,-26.7022,137.01)">
            <g transform="matrix(96,0,0,96,90.396,198.147)">
                <path d="M0.575,-0.535C0.556,-0.555 0.532,-0.57 0.504,-0.581C0.477,-0.592 0.447,-0.597 0.416,-0.597C0.384,-0.597 0.356,-0.592 0.331,-0.581C0.305,-0.57 0.283,-0.555 0.265,-0.535C0.247,-0.515 0.232,-0.491 0.222,-0.463C0.212,-0.436 0.208,-0.405 0.208,-0.37C0.208,-0.335 0.213,-0.303 0.223,-0.275C0.234,-0.246 0.248,-0.221 0.267,-0.2C0.286,-0.18 0.309,-0.164 0.335,-0.152C0.362,-0.141 0.391,-0.135 0.423,-0.135C0.449,-0.135 0.472,-0.139 0.493,-0.146C0.514,-0.154 0.532,-0.164 0.549,-0.178C0.565,-0.192 0.578,-0.209 0.589,-0.229C0.6,-0.248 0.608,-0.271 0.613,-0.296L0.418,-0.296L0.418,-0.427L0.764,-0.427L0.769,-0.361C0.769,-0.306 0.76,-0.255 0.743,-0.209C0.726,-0.163 0.702,-0.123 0.671,-0.09C0.64,-0.056 0.603,-0.031 0.56,-0.012C0.517,0.006 0.469,0.015 0.417,0.015C0.363,0.015 0.312,0.005 0.265,-0.014C0.219,-0.034 0.178,-0.061 0.143,-0.095C0.108,-0.13 0.081,-0.17 0.061,-0.217C0.042,-0.263 0.032,-0.313 0.032,-0.368C0.032,-0.421 0.041,-0.471 0.061,-0.517C0.08,-0.563 0.107,-0.603 0.141,-0.638C0.175,-0.672 0.215,-0.699 0.261,-0.718C0.308,-0.737 0.357,-0.747 0.411,-0.747C0.462,-0.747 0.511,-0.738 0.558,-0.721C0.606,-0.703 0.648,-0.678 0.686,-0.646L0.575,-0.535Z" style="fill-rule:nonzero;"/>
            </g>
            <g transform="matrix(96,0,0,96,165.304,198.147)">
                <path d="M0.542,-0L0.054,-0L0.054,-0.732L0.226,-0.732L0.226,-0.15L0.542,-0.15L0.542,-0Z" style="fill-rule:nonzero;"/>
            </g>
            <g transform="matrix(96,0,0,96,214.995,198.147)">
                <path d="M0.419,0.015C0.363,0.015 0.311,0.005 0.264,-0.014C0.217,-0.033 0.176,-0.06 0.142,-0.094C0.107,-0.128 0.08,-0.169 0.061,-0.215C0.041,-0.261 0.032,-0.312 0.032,-0.366C0.032,-0.421 0.041,-0.471 0.061,-0.518C0.08,-0.564 0.107,-0.604 0.142,-0.638C0.176,-0.673 0.217,-0.699 0.264,-0.719C0.311,-0.738 0.363,-0.747 0.419,-0.747C0.475,-0.747 0.526,-0.738 0.573,-0.719C0.621,-0.699 0.661,-0.673 0.696,-0.638C0.73,-0.604 0.757,-0.564 0.776,-0.518C0.796,-0.471 0.805,-0.421 0.805,-0.366C0.805,-0.312 0.796,-0.261 0.776,-0.215C0.757,-0.169 0.73,-0.128 0.696,-0.094C0.661,-0.06 0.621,-0.033 0.573,-0.014C0.526,0.005 0.475,0.015 0.419,0.015ZM0.419,-0.135C0.449,-0.135 0.477,-0.141 0.502,-0.153C0.528,-0.165 0.55,-0.181 0.569,-0.202C0.588,-0.223 0.603,-0.247 0.614,-0.275C0.624,-0.303 0.629,-0.334 0.629,-0.366C0.629,-0.399 0.624,-0.429 0.614,-0.457C0.603,-0.485 0.588,-0.51 0.569,-0.531C0.55,-0.552 0.528,-0.568 0.502,-0.58C0.477,-0.591 0.449,-0.597 0.419,-0.597C0.389,-0.597 0.361,-0.591 0.335,-0.58C0.309,-0.568 0.287,-0.552 0.268,-0.531C0.249,-0.51 0.234,-0.485 0.223,-0.457C0.213,-0.429 0.208,-0.399 0.208,-0.366C0.208,-0.334 0.213,-0.303 0.223,-0.275C0.234,-0.247 0.249,-0.223 0.268,-0.202C0.287,-0.181 0.309,-0.165 0.335,-0.153C0.361,-0.141 0.389,-0.135 0.419,-0.135Z" style="fill-rule:nonzero;"/>
            </g>
            <g transform="matrix(96,0,0,96,285.739,198.147)">
                <path d="M0.776,-0L0.56,-0L0.387,-0.248L0.213,-0L0.009,-0L0.288,-0.375L0.031,-0.732L0.248,-0.732L0.398,-0.517L0.544,-0.732L0.756,-0.732L0.498,-0.38L0.776,-0Z" style="fill-rule:nonzero;"/>
            </g>
            <g transform="matrix(96,0,0,96,359.241,198.147)">
                <rect x="0.054" y="-0.732" width="0.172" height="0.732" style="fill-rule:nonzero;"/>
            </g>
            <g transform="matrix(96,0,0,96,386.147,198.147)">
                <path d="M0.729,-0L0.529,-0L0.226,-0.467L0.226,-0L0.054,-0L0.054,-0.732L0.254,-0.732L0.558,-0.264L0.558,-0.732L0.729,-0.732L0.729,-0Z" style="fill-rule:nonzero;"/>
            </g>
            <g transform="matrix(96,0,0,96,461.382,198.147)">
                <rect x="0.054" y="-0.732" width="0.172" height="0.732" style="fill-rule:nonzero;"/>
            </g>
            <g transform="matrix(96,0,0,96,486.368,198.147)">
                <path d="M0.188,-0L0.008,-0L0.297,-0.732L0.478,-0.732L0.767,-0L0.586,-0L0.533,-0.144L0.242,-0.144L0.188,-0ZM0.297,-0.294L0.478,-0.294L0.388,-0.534L0.297,-0.294Z" style="fill-rule:nonzero;"/>
            </g>
        </g>
    </g>
</svg>
